<svg width="78" height="78" viewBox="0 0 78 78" fill="none" xmlns="http://www.w3.org/2000/svg">
<g filter="url(#filter0_i_0_1)">
<circle cx="39" cy="39" r="39" fill="url(#paint0_linear_0_1)"/>
</g>
<path d="M41.9763 42.7675L43.5163 41.2275C43.7237 41.0227 43.9861 40.8825 44.2717 40.8239C44.5573 40.7653 44.8537 40.7909 45.125 40.8975L47.0019 41.6469C47.2761 41.7582 47.5112 41.9482 47.6776 42.1928C47.8439 42.4375 47.9342 42.726 47.9369 43.0219V46.4594C47.9353 46.6607 47.893 46.8596 47.8125 47.0441C47.732 47.2286 47.615 47.3949 47.4686 47.533C47.3221 47.6711 47.1493 47.7781 46.9603 47.8476C46.7714 47.9172 46.5704 47.9477 46.3694 47.9375C33.2175 47.1194 30.5638 35.9819 30.0619 31.7194C30.0386 31.5101 30.0599 31.2982 30.1243 31.0977C30.1888 30.8972 30.295 30.7126 30.4359 30.5561C30.5769 30.3996 30.7493 30.2747 30.942 30.1896C31.1347 30.1046 31.3432 30.0612 31.5538 30.0625H34.8744C35.1707 30.0634 35.46 30.1529 35.705 30.3195C35.9501 30.4862 36.1396 30.7223 36.2494 30.9975L36.9988 32.8744C37.1089 33.1446 37.137 33.4413 37.0796 33.7275C37.0221 34.0136 36.8816 34.2764 36.6756 34.4832L35.1356 36.0232C35.1356 36.0232 36.0225 42.025 41.9763 42.7675Z" fill="white"/>
<defs>
<filter id="filter0_i_0_1" x="0" y="0" width="81" height="81" filterUnits="userSpaceOnUse" color-interpolation-filters="sRGB">
<feFlood flood-opacity="0" result="BackgroundImageFix"/>
<feBlend mode="normal" in="SourceGraphic" in2="BackgroundImageFix" result="shape"/>
<feColorMatrix in="SourceAlpha" type="matrix" values="0 0 0 0 0 0 0 0 0 0 0 0 0 0 0 0 0 0 127 0" result="hardAlpha"/>
<feOffset dx="3" dy="3"/>
<feGaussianBlur stdDeviation="9"/>
<feComposite in2="hardAlpha" operator="arithmetic" k2="-1" k3="1"/>
<feColorMatrix type="matrix" values="0 0 0 0 1 0 0 0 0 1 0 0 0 0 1 0 0 0 0.64 0"/>
<feBlend mode="normal" in2="shape" result="effect1_innerShadow_0_1"/>
</filter>
<linearGradient id="paint0_linear_0_1" x1="39" y1="0" x2="39" y2="78" gradientUnits="userSpaceOnUse">
<stop stop-color="#ADD8A7"/>
<stop offset="1" stop-color="#84C57A"/>
</linearGradient>
</defs>
</svg>
