<svg width="78" height="78" viewBox="0 0 78 78" fill="none" xmlns="http://www.w3.org/2000/svg">
<g filter="url(#filter0_i_0_1)">
<circle cx="39" cy="39" r="39" fill="url(#paint0_linear_0_1)"/>
</g>
<path d="M37 43V42H30.01L30 46C30 47.11 30.89 48 32 48H46C47.11 48 48 47.11 48 46V42H41V43H37ZM47 34H42.99V32L40.99 30H36.99L34.99 32V34H31C29.9 34 29 34.9 29 36V39C29 40.11 29.89 41 31 41H37V39H41V41H47C48.1 41 49 40.1 49 39V36C49 34.9 48.1 34 47 34ZM41 34H37V32H41V34Z" fill="white"/>
<defs>
<filter id="filter0_i_0_1" x="0" y="0" width="81" height="81" filterUnits="userSpaceOnUse" color-interpolation-filters="sRGB">
<feFlood flood-opacity="0" result="BackgroundImageFix"/>
<feBlend mode="normal" in="SourceGraphic" in2="BackgroundImageFix" result="shape"/>
<feColorMatrix in="SourceAlpha" type="matrix" values="0 0 0 0 0 0 0 0 0 0 0 0 0 0 0 0 0 0 127 0" result="hardAlpha"/>
<feOffset dx="3" dy="3"/>
<feGaussianBlur stdDeviation="9"/>
<feComposite in2="hardAlpha" operator="arithmetic" k2="-1" k3="1"/>
<feColorMatrix type="matrix" values="0 0 0 0 1 0 0 0 0 1 0 0 0 0 1 0 0 0 0.64 0"/>
<feBlend mode="normal" in2="shape" result="effect1_innerShadow_0_1"/>
</filter>
<linearGradient id="paint0_linear_0_1" x1="39" y1="0" x2="39" y2="78" gradientUnits="userSpaceOnUse">
<stop stop-color="#ADD8A7"/>
<stop offset="1" stop-color="#84C57A"/>
</linearGradient>
</defs>
</svg>
